<svg xmlns="http://www.w3.org/2000/svg" version="1.1" width="1280px" height="347px"
     style="shape-rendering:geometricPrecision; text-rendering:geometricPrecision; image-rendering:optimizeQuality; fill-rule:evenodd; clip-rule:evenodd"
>
    <g>
        <path style="opacity:1" fill="#fefefd"
              d="M -0.5,-0.5 C 426.167,-0.5 852.833,-0.5 1279.5,-0.5C 1279.5,115.167 1279.5,230.833 1279.5,346.5C 1112.17,346.5 944.833,346.5 777.5,346.5C 777.5,322.833 777.5,299.167 777.5,275.5C 754.5,275.5 731.5,275.5 708.5,275.5C 706.51,298.81 705.843,322.476 706.5,346.5C 694.5,346.5 682.5,346.5 670.5,346.5C 670.5,322.833 670.5,299.167 670.5,275.5C 646.833,275.5 623.167,275.5 599.5,275.5C 599.5,299.167 599.5,322.833 599.5,346.5C 587.5,346.5 575.5,346.5 563.5,346.5C 563.5,322.833 563.5,299.167 563.5,275.5C 539.5,275.5 515.5,275.5 491.5,275.5C 491.5,299.167 491.5,322.833 491.5,346.5C 327.5,346.5 163.5,346.5 -0.5,346.5C -0.5,308.167 -0.5,269.833 -0.5,231.5C -0.166667,231.5 0.166667,231.5 0.5,231.5C 24.1667,231.5 47.8333,231.5 71.5,231.5C 71.5,213.5 71.5,195.5 71.5,177.5C 103.771,180.404 134.771,175.57 164.5,163C 210.632,139.322 227.465,102.156 215,51.5C 206.315,32.4836 192.149,19.3169 172.5,12C 156.916,6.94023 140.916,4.44023 124.5,4.5C 83.0033,3.50136 41.3367,3.16802 -0.5,3.5C -0.5,2.16667 -0.5,0.833333 -0.5,-0.5 Z"/>
    </g>
    <g>
        <path style="opacity:1" fill="#ccc"
              d="M 377.5,233.5 C 366.85,234.238 356.183,234.572 345.5,234.5C 279.337,230.834 242.504,196.167 235,130.5C 232.209,104.225 236.542,79.2253 248,55.5C 266.532,24.7987 293.699,6.96538 329.5,2C 359.404,-2.08044 388.404,1.25289 416.5,12C 448.888,28.4102 468.388,54.5768 475,90.5C 479.336,119.818 476.002,148.152 465,175.5C 446.431,210.396 417.264,229.729 377.5,233.5 Z"/>
    </g>
    <g>
        <path style="opacity:1" fill="#ccc"
              d="M 124.5,4.5 C 140.916,4.44023 156.916,6.94023 172.5,12C 192.149,19.3169 206.315,32.4836 215,51.5C 227.465,102.156 210.632,139.322 164.5,163C 134.771,175.57 103.771,180.404 71.5,177.5C 70.5033,194.992 70.1699,212.659 70.5,230.5C 47.1667,230.5 23.8333,230.5 0.5,230.5C 0.5,155.167 0.5,79.8333 0.5,4.5C 41.8333,4.5 83.1667,4.5 124.5,4.5 Z"/>
    </g>
    <g>
        <path style="opacity:1" fill="#000000"
              d="M 813.5,6.5 C 837.167,6.5 860.833,6.5 884.5,6.5C 884.333,47.168 884.5,87.8347 885,128.5C 886.039,127.756 886.539,126.756 886.5,125.5C 909.473,86.2297 932.473,46.8963 955.5,7.5C 973.488,6.50046 991.488,6.16712 1009.5,6.5C 1014.98,7.48886 1020.64,7.8222 1026.5,7.5C 1026.5,80.8333 1026.5,154.167 1026.5,227.5C 1003.17,227.5 979.833,227.5 956.5,227.5C 956.833,188.494 956.5,149.494 955.5,110.5C 954.893,110.624 954.56,110.957 954.5,111.5C 931.529,150.452 908.196,189.118 884.5,227.5C 860.833,227.5 837.167,227.5 813.5,227.5C 813.5,153.833 813.5,80.1667 813.5,6.5 Z"/>
    </g>
    <g>
        <path style="opacity:1" fill="#010101"
              d="M 1165.5,180.5 C 1153.83,180.5 1142.17,180.5 1130.5,180.5C 1130.5,196.167 1130.5,211.833 1130.5,227.5C 1106.83,227.5 1083.17,227.5 1059.5,227.5C 1059.5,153.833 1059.5,80.1667 1059.5,6.5C 1101.83,6.33334 1144.17,6.50001 1186.5,7C 1214.38,5.46356 1238.72,13.7969 1259.5,32C 1276.54,49.7979 1282.7,70.9646 1278,95.5C 1274.92,118.489 1264.42,137.322 1246.5,152C 1222.15,168.833 1195.15,178.333 1165.5,180.5 Z"/>
    </g>
    <g>
        <path style="opacity:1" fill="#676767"
              d="M -0.5,3.5 C 41.3367,3.16802 83.0033,3.50136 124.5,4.5C 83.1667,4.5 41.8333,4.5 0.5,4.5C 0.5,79.8333 0.5,155.167 0.5,230.5C 0.5,230.833 0.5,231.167 0.5,231.5C 0.166667,231.5 -0.166667,231.5 -0.5,231.5C -0.5,155.5 -0.5,79.5 -0.5,3.5 Z"/>
    </g>
    <g>
        <path style="opacity:1" fill="#313131"
              d="M 563.5,7.5 C 539.833,7.5 516.167,7.5 492.5,7.5C 492.5,80.8333 492.5,154.167 492.5,227.5C 515.833,227.5 539.167,227.5 562.5,227.5C 562.5,227.833 562.5,228.167 562.5,228.5C 538.833,228.5 515.167,228.5 491.5,228.5C 491.5,154.5 491.5,80.5 491.5,6.5C 515.672,6.16905 539.672,6.50239 563.5,7.5 Z"/>
    </g>
    <g>
        <path style="opacity:1" fill="#000000"
              d="M 777.5,227.5 C 754.167,227.5 730.833,227.5 707.5,227.5C 707.737,226.209 707.404,225.209 706.5,224.5C 706.5,224.167 706.5,223.833 706.5,223.5C 707.83,189.664 707.83,155.664 706.5,121.5C 705.893,121.624 705.56,121.957 705.5,122.5C 687.143,157.542 668.476,192.542 649.5,227.5C 639.606,228.818 629.773,228.818 620,227.5C 601.25,193.001 582.75,158.335 564.5,123.5C 564.44,122.957 564.107,122.624 563.5,122.5C 562.5,157.494 562.167,192.494 562.5,227.5C 539.167,227.5 515.833,227.5 492.5,227.5C 492.5,154.167 492.5,80.8333 492.5,7.5C 516.167,7.5 539.833,7.5 563.5,7.5C 586.795,53.4234 610.629,99.0901 635,144.5C 658.991,98.6826 682.824,52.8492 706.5,7C 730.164,6.50003 753.831,6.33337 777.5,6.5C 777.5,80.1667 777.5,153.833 777.5,227.5 Z"/>
    </g>
    <g>
        <path style="opacity:1" fill="#dddddd"
              d="M 884.5,6.5 C 885.167,46.1667 885.833,85.8333 886.5,125.5C 886.539,126.756 886.039,127.756 885,128.5C 884.5,87.8347 884.333,47.168 884.5,6.5 Z"/>
    </g>
    <g>
        <path style="opacity:1" fill="#232323"
              d="M 1009.5,6.5 C 1015.5,6.5 1021.5,6.5 1027.5,6.5C 1027.5,80.1667 1027.5,153.833 1027.5,227.5C 1027.17,227.5 1026.83,227.5 1026.5,227.5C 1026.5,154.167 1026.5,80.8333 1026.5,7.5C 1020.64,7.8222 1014.98,7.48886 1009.5,6.5 Z"/>
    </g>
    <g>
        <path style="opacity:1" fill="#fcfcfc"
              d="M 344.5,49.5 C 358.053,47.892 370.72,50.392 382.5,57C 395.077,68.7023 401.91,83.2023 403,100.5C 403.755,114.193 403.421,127.86 402,141.5C 396.153,176.01 375.986,190.176 341.5,184C 329.186,180.016 320.353,172.183 315,160.5C 307.994,141.443 305.66,121.776 308,101.5C 308.892,83.2227 316.058,68.056 329.5,56C 334.367,53.2259 339.367,51.0593 344.5,49.5 Z"/>
    </g>
    <g>
        <path style="opacity:1" fill="#cdcdcd"
              d="M 119.5,55.5 C 103.833,55.5 88.1667,55.5 72.5,55.5C 72.5,79.5 72.5,103.5 72.5,127.5C 83.8333,127.5 95.1667,127.5 106.5,127.5C 95.012,128.495 83.3453,128.828 71.5,128.5C 71.5,103.833 71.5,79.1667 71.5,54.5C 87.6754,54.1703 103.675,54.5036 119.5,55.5 Z"/>
    </g>
    <g>
        <path style="opacity:1" fill="#fdfdfd"
              d="M 119.5,55.5 C 147.015,57.5325 158.182,72.1992 153,99.5C 147.652,115.61 136.485,124.777 119.5,127C 115.179,127.499 110.846,127.666 106.5,127.5C 95.1667,127.5 83.8333,127.5 72.5,127.5C 72.5,103.5 72.5,79.5 72.5,55.5C 88.1667,55.5 103.833,55.5 119.5,55.5 Z"/>
    </g>
    <g>
        <path style="opacity:1" fill="#fdfdfd"
              d="M 1167.5,57.5 C 1206.71,56.3016 1220.54,74.3016 1209,111.5C 1202.38,121.234 1193.21,127.067 1181.5,129C 1175.22,130.188 1168.89,130.688 1162.5,130.5C 1152.17,130.5 1141.83,130.5 1131.5,130.5C 1131.5,106.167 1131.5,81.8333 1131.5,57.5C 1143.5,57.5 1155.5,57.5 1167.5,57.5 Z"/>
    </g>
    <g>
        <path style="opacity:1" fill="#8f8f8f"
              d="M 1167.5,57.5 C 1155.5,57.5 1143.5,57.5 1131.5,57.5C 1131.5,81.8333 1131.5,106.167 1131.5,130.5C 1141.83,130.5 1152.17,130.5 1162.5,130.5C 1152.01,131.494 1141.35,131.828 1130.5,131.5C 1130.5,106.5 1130.5,81.5 1130.5,56.5C 1143.01,56.1714 1155.34,56.5048 1167.5,57.5 Z"/>
    </g>
    <g>
        <path style="opacity:1" fill="#838383"
              d="M 954.5,111.5 C 954.56,110.957 954.893,110.624 955.5,110.5C 956.5,149.494 956.833,188.494 956.5,227.5C 979.833,227.5 1003.17,227.5 1026.5,227.5C 1026.83,227.5 1027.17,227.5 1027.5,227.5C 1003.67,228.498 979.672,228.831 955.5,228.5C 955.832,189.33 955.499,150.33 954.5,111.5 Z"/>
    </g>
    <g>
        <path style="opacity:1" fill="#222222"
              d="M 705.5,122.5 C 705.56,121.957 705.893,121.624 706.5,121.5C 707.83,155.664 707.83,189.664 706.5,223.5C 706.832,189.663 706.498,155.996 705.5,122.5 Z"/>
    </g>
    <g>
        <path style="opacity:1" fill="#838383"
              d="M 564.5,123.5 C 563.833,158.5 563.167,193.5 562.5,228.5C 562.5,228.167 562.5,227.833 562.5,227.5C 562.167,192.494 562.5,157.494 563.5,122.5C 564.107,122.624 564.44,122.957 564.5,123.5 Z"/>
    </g>
    <g>
        <path style="opacity:1" fill="#aeaeae"
              d="M 1165.5,180.5 C 1154.35,181.495 1143.01,181.828 1131.5,181.5C 1131.83,197.009 1131.5,212.342 1130.5,227.5C 1130.5,211.833 1130.5,196.167 1130.5,180.5C 1142.17,180.5 1153.83,180.5 1165.5,180.5 Z"/>
    </g>
    <g>
        <path style="opacity:1" fill="#323232"
              d="M 706.5,224.5 C 707.404,225.209 707.737,226.209 707.5,227.5C 730.833,227.5 754.167,227.5 777.5,227.5C 754.006,228.498 730.339,228.831 706.5,228.5C 706.5,227.167 706.5,225.833 706.5,224.5 Z"/>
    </g>
    <g>
        <path style="opacity:1" fill="#757575"
              d="M 813.5,6.5 C 813.5,80.1667 813.5,153.833 813.5,227.5C 837.167,227.5 860.833,227.5 884.5,227.5C 860.672,228.498 836.672,228.831 812.5,228.5C 812.167,154.331 812.501,80.3315 813.5,6.5 Z"/>
    </g>
    <g>
        <path style="opacity:1" fill="#1c1c1c"
              d="M 71.5,177.5 C 71.5,195.5 71.5,213.5 71.5,231.5C 47.8333,231.5 24.1667,231.5 0.5,231.5C 0.5,231.167 0.5,230.833 0.5,230.5C 23.8333,230.5 47.1667,230.5 70.5,230.5C 70.1699,212.659 70.5033,194.992 71.5,177.5 Z"/>
    </g>
    <g>
        <path style="opacity:1" fill="#c5c5c5"
              d="M 377.5,233.5 C 371.231,234.98 364.731,235.647 358,235.5C 353.653,235.499 349.486,235.166 345.5,234.5C 356.183,234.572 366.85,234.238 377.5,233.5 Z"/>
    </g>
    <g>
        <path style="opacity:1" fill="#fe8201"
              d="M 708.5,276.5 C 731.167,276.5 753.833,276.5 776.5,276.5C 776.374,299.78 776.374,323.113 776.5,346.5C 753.5,346.5 730.5,346.5 707.5,346.5C 707.169,322.994 707.502,299.661 708.5,276.5 Z"/>
    </g>
    <g>
        <path style="opacity:1" fill="#e99847"
              d="M 708.5,275.5 C 708.5,275.833 708.5,276.167 708.5,276.5C 707.502,299.661 707.169,322.994 707.5,346.5C 707.167,346.5 706.833,346.5 706.5,346.5C 705.843,322.476 706.51,298.81 708.5,275.5 Z"/>
    </g>
    <g>
        <path style="opacity:1" fill="#f2953e"
              d="M 563.5,346.5 C 562.833,346.5 562.167,346.5 561.5,346.5C 561.667,323.498 561.5,300.498 561,277.5C 538.242,276.506 515.408,276.173 492.5,276.5C 492.5,299.833 492.5,323.167 492.5,346.5C 492.167,346.5 491.833,346.5 491.5,346.5C 491.5,322.833 491.5,299.167 491.5,275.5C 515.5,275.5 539.5,275.5 563.5,275.5C 563.5,299.167 563.5,322.833 563.5,346.5 Z"/>
    </g>
    <g>
        <path style="opacity:1" fill="#fe8201"
              d="M 561.5,346.5 C 538.5,346.5 515.5,346.5 492.5,346.5C 492.5,323.167 492.5,299.833 492.5,276.5C 515.408,276.173 538.242,276.506 561,277.5C 561.5,300.498 561.667,323.498 561.5,346.5 Z"/>
    </g>
    <g>
        <path style="opacity:1" fill="#ea8a28"
              d="M 670.5,346.5 C 669.833,346.5 669.167,346.5 668.5,346.5C 668.5,323.167 668.5,299.833 668.5,276.5C 645.833,276.5 623.167,276.5 600.5,276.5C 600.5,299.833 600.5,323.167 600.5,346.5C 600.167,346.5 599.833,346.5 599.5,346.5C 599.5,322.833 599.5,299.167 599.5,275.5C 623.167,275.5 646.833,275.5 670.5,275.5C 670.5,299.167 670.5,322.833 670.5,346.5 Z"/>
    </g>
    <g>
        <path style="opacity:1" fill="#fe8201"
              d="M 668.5,346.5 C 645.833,346.5 623.167,346.5 600.5,346.5C 600.5,323.167 600.5,299.833 600.5,276.5C 623.167,276.5 645.833,276.5 668.5,276.5C 668.5,299.833 668.5,323.167 668.5,346.5 Z"/>
    </g>
    <g>
        <path style="opacity:1" fill="#eb891c"
              d="M 708.5,276.5 C 708.5,276.167 708.5,275.833 708.5,275.5C 731.5,275.5 754.5,275.5 777.5,275.5C 777.5,299.167 777.5,322.833 777.5,346.5C 777.167,346.5 776.833,346.5 776.5,346.5C 776.374,323.113 776.374,299.78 776.5,276.5C 753.833,276.5 731.167,276.5 708.5,276.5 Z"/>
    </g>
</svg>
