<svg width="392" height="107" viewBox="0 0 392 107" fill="none" xmlns="http://www.w3.org/2000/svg">
<g clip-path="url(#clip0_11_191)">
<path d="M123.644 36.4015C123.644 40.7338 123.275 44.1433 122.575 46.5914C121.876 49.0523 120.807 51.1544 119.395 52.9104C118.148 54.4741 116.609 55.6277 114.815 56.2814C113.008 56.9607 111.126 57.294 109.141 57.294C106.813 57.294 104.765 56.9223 102.984 56.1917C101.177 55.4611 99.6377 54.3075 98.3528 52.7053C97.017 51.0647 95.9993 48.8473 95.3123 46.1043C94.6126 43.3614 94.2818 40.1186 94.2818 36.3887C94.2818 32.2102 94.6762 28.7367 95.4522 25.9938C96.2537 23.2252 97.2969 21.0462 98.6454 19.4697C100.134 17.765 101.711 16.6242 103.34 16.0474C104.968 15.4707 106.851 15.2015 108.95 15.2015C111.049 15.2015 112.996 15.5476 114.84 16.2397C116.66 16.919 118.224 18.111 119.522 19.7773C120.807 21.4051 121.825 23.5713 122.55 26.2758C123.275 29.0059 123.657 32.3769 123.657 36.4015M146.111 36.2734C146.111 25.0581 142.879 16.2141 136.417 9.71562C129.954 3.24281 120.807 0 108.963 0C97.1188 0 88.1753 3.23 81.6362 9.66435C75.0972 16.1115 71.8276 24.9812 71.8276 36.2862C71.8276 47.5912 75.0844 56.3455 81.5726 62.8183C88.0862 69.2783 97.2078 72.5083 108.963 72.5083C120.718 72.5083 129.865 69.2783 136.353 62.8183C142.841 56.3455 146.111 47.5014 146.111 36.2862" fill="black"/>
<path d="M293.062 1.92261L271.091 40.1186V1.96106H249.26V70.4446H271.091L293.062 33.6586V70.4446H314.893V1.96106L293.062 1.92261Z" fill="black"/>
<path d="M389.201 13.8813C387.318 10.8435 384.799 8.3826 381.619 6.45998C378.502 4.57582 375.131 3.33253 371.556 2.75574C367.968 2.17896 363.681 1.89697 358.707 1.89697H324.765V70.3805H346.595V55.8199H354.089C364.292 55.8199 391.987 50.9878 391.987 25.2888C391.987 20.7002 391.046 16.9062 389.188 13.8813H389.201ZM370.932 33.6458C370.233 35.0685 369.151 36.3631 367.65 37.5423C366.085 38.7727 364.139 39.529 361.824 39.9007C359.508 40.2467 356.646 40.4134 353.198 40.4134H346.583V17.5471H354.369C356.951 17.5471 359.203 17.624 361.149 17.7521C363.083 17.8803 364.788 18.2648 366.251 18.8673C368.337 19.7388 369.826 20.9309 370.678 22.4561C371.53 23.9814 371.963 25.7887 371.963 27.9036C371.963 30.3004 371.619 32.223 370.932 33.633V33.6458Z" fill="black"/>
<path d="M216.59 1.96106L194.543 45.0405L172.547 1.96106H150.691V70.4959H172.509V37.3757L190.18 70.4959H198.92L216.59 37.3757V70.4959H238.408V1.96106H216.59Z" fill="black"/>
<path d="M238.421 85.0181H216.59V107.013H238.421V85.0181Z" fill="#FF8200"/>
<path d="M205.471 85.0181H183.641V107.013H205.471V85.0181Z" fill="#FF8200"/>
<path d="M172.522 85.0181H150.691V107.013H172.522V85.0181Z" fill="#FF8200"/>
<path d="M64.4364 13.0994C62.5536 10.0745 60.0346 7.61355 56.8542 5.70376C53.7373 3.81959 50.366 2.58912 46.7911 2.01233C43.2036 1.43555 38.9163 1.15357 33.942 1.15357L0 1.01257V71.4957H21.8308V54.9355H29.324C39.8068 54.9355 67.2225 50.1162 67.2225 24.4813C67.2225 19.9055 66.2811 16.1243 64.4237 13.0994H64.4364ZM46.1678 32.8126C45.4681 34.2354 44.3867 35.5299 42.8855 36.6963C41.3207 37.914 39.3743 38.683 37.0589 39.0419C34.7435 39.388 31.8811 39.5546 28.4334 39.5546H21.8181V16.7396H29.6039C32.1864 16.7396 34.4382 16.8165 36.3846 16.9447C38.3184 17.0728 40.0231 17.4573 41.4861 18.0598C43.5725 18.9185 45.061 20.1234 45.9133 21.6486C46.7657 23.1611 47.1982 24.9812 47.1982 27.0832C47.1982 29.4673 46.8548 31.3899 46.1678 32.7998V32.8126Z" fill="black"/>
</g>
<defs>
<clipPath id="clip0_11_191">
<rect width="392" height="107" fill="white"/>
</clipPath>
</defs>
</svg>
